G04 #@! TF.GenerationSoftware,KiCad,Pcbnew,(5.1.0-0)*
G04 #@! TF.CreationDate,2019-10-20T20:04:01+02:00*
G04 #@! TF.ProjectId,fllor2,666c6c6f-7232-42e6-9b69-6361645f7063,rev?*
G04 #@! TF.SameCoordinates,Original*
G04 #@! TF.FileFunction,Soldermask,Bot*
G04 #@! TF.FilePolarity,Negative*
%FSLAX46Y46*%
G04 Gerber Fmt 4.6, Leading zero omitted, Abs format (unit mm)*
G04 Created by KiCad (PCBNEW (5.1.0-0)) date 2019-10-20 20:04:01*
%MOMM*%
%LPD*%
G04 APERTURE LIST*
%ADD10C,0.100000*%
G04 APERTURE END LIST*
D10*
G36*
X212089239Y-20941467D02*
G01*
X212403282Y-21003934D01*
X212994926Y-21249001D01*
X213527392Y-21604784D01*
X213980216Y-22057608D01*
X214335999Y-22590074D01*
X214581066Y-23181718D01*
X214706000Y-23809804D01*
X214706000Y-24450196D01*
X214581066Y-25078282D01*
X214335999Y-25669926D01*
X213980216Y-26202392D01*
X213527392Y-26655216D01*
X212994926Y-27010999D01*
X212403282Y-27256066D01*
X212089239Y-27318533D01*
X211775197Y-27381000D01*
X211134803Y-27381000D01*
X210820761Y-27318533D01*
X210506718Y-27256066D01*
X209915074Y-27010999D01*
X209382608Y-26655216D01*
X208929784Y-26202392D01*
X208574001Y-25669926D01*
X208328934Y-25078282D01*
X208204000Y-24450196D01*
X208204000Y-23809804D01*
X208328934Y-23181718D01*
X208574001Y-22590074D01*
X208929784Y-22057608D01*
X209382608Y-21604784D01*
X209915074Y-21249001D01*
X210506718Y-21003934D01*
X210820761Y-20941467D01*
X211134803Y-20879000D01*
X211775197Y-20879000D01*
X212089239Y-20941467D01*
X212089239Y-20941467D01*
G37*
G36*
X138429239Y-20941467D02*
G01*
X138743282Y-21003934D01*
X139334926Y-21249001D01*
X139867392Y-21604784D01*
X140320216Y-22057608D01*
X140675999Y-22590074D01*
X140921066Y-23181718D01*
X141046000Y-23809804D01*
X141046000Y-24450196D01*
X140921066Y-25078282D01*
X140675999Y-25669926D01*
X140320216Y-26202392D01*
X139867392Y-26655216D01*
X139334926Y-27010999D01*
X138743282Y-27256066D01*
X138429239Y-27318533D01*
X138115197Y-27381000D01*
X137474803Y-27381000D01*
X137160761Y-27318533D01*
X136846718Y-27256066D01*
X136255074Y-27010999D01*
X135722608Y-26655216D01*
X135269784Y-26202392D01*
X134914001Y-25669926D01*
X134668934Y-25078282D01*
X134544000Y-24450196D01*
X134544000Y-23809804D01*
X134668934Y-23181718D01*
X134914001Y-22590074D01*
X135269784Y-22057608D01*
X135722608Y-21604784D01*
X136255074Y-21249001D01*
X136846718Y-21003934D01*
X137160761Y-20941467D01*
X137474803Y-20879000D01*
X138115197Y-20879000D01*
X138429239Y-20941467D01*
X138429239Y-20941467D01*
G37*
G36*
X212089239Y8903533D02*
G01*
X212403282Y8841066D01*
X212994926Y8595999D01*
X213527392Y8240216D01*
X213980216Y7787392D01*
X214335999Y7254926D01*
X214581066Y6663282D01*
X214706000Y6035196D01*
X214706000Y5394804D01*
X214581066Y4766718D01*
X214335999Y4175074D01*
X213980216Y3642608D01*
X213527392Y3189784D01*
X212994926Y2834001D01*
X212403282Y2588934D01*
X212089239Y2526467D01*
X211775197Y2464000D01*
X211134803Y2464000D01*
X210820761Y2526467D01*
X210506718Y2588934D01*
X209915074Y2834001D01*
X209382608Y3189784D01*
X208929784Y3642608D01*
X208574001Y4175074D01*
X208328934Y4766718D01*
X208204000Y5394804D01*
X208204000Y6035196D01*
X208328934Y6663282D01*
X208574001Y7254926D01*
X208929784Y7787392D01*
X209382608Y8240216D01*
X209915074Y8595999D01*
X210506718Y8841066D01*
X210820761Y8903533D01*
X211134803Y8966000D01*
X211775197Y8966000D01*
X212089239Y8903533D01*
X212089239Y8903533D01*
G37*
G36*
X138429239Y8903533D02*
G01*
X138743282Y8841066D01*
X139334926Y8595999D01*
X139867392Y8240216D01*
X140320216Y7787392D01*
X140675999Y7254926D01*
X140921066Y6663282D01*
X141046000Y6035196D01*
X141046000Y5394804D01*
X140921066Y4766718D01*
X140675999Y4175074D01*
X140320216Y3642608D01*
X139867392Y3189784D01*
X139334926Y2834001D01*
X138743282Y2588934D01*
X138429239Y2526467D01*
X138115197Y2464000D01*
X137474803Y2464000D01*
X137160761Y2526467D01*
X136846718Y2588934D01*
X136255074Y2834001D01*
X135722608Y3189784D01*
X135269784Y3642608D01*
X134914001Y4175074D01*
X134668934Y4766718D01*
X134544000Y5394804D01*
X134544000Y6035196D01*
X134668934Y6663282D01*
X134914001Y7254926D01*
X135269784Y7787392D01*
X135722608Y8240216D01*
X136255074Y8595999D01*
X136846718Y8841066D01*
X137160761Y8903533D01*
X137474803Y8966000D01*
X138115197Y8966000D01*
X138429239Y8903533D01*
X138429239Y8903533D01*
G37*
M02*
