G04 #@! TF.GenerationSoftware,KiCad,Pcbnew,(5.1.0-0)*
G04 #@! TF.CreationDate,2019-10-20T20:04:01+02:00*
G04 #@! TF.ProjectId,fllor2,666c6c6f-7232-42e6-9b69-6361645f7063,rev?*
G04 #@! TF.SameCoordinates,Original*
G04 #@! TF.FileFunction,Copper,L1,Top*
G04 #@! TF.FilePolarity,Positive*
%FSLAX46Y46*%
G04 Gerber Fmt 4.6, Leading zero omitted, Abs format (unit mm)*
G04 Created by KiCad (PCBNEW (5.1.0-0)) date 2019-10-20 20:04:01*
%MOMM*%
%LPD*%
G04 APERTURE LIST*
%ADD10C,0.100000*%
%ADD11C,1.150000*%
%ADD12C,6.400000*%
%ADD13R,10.000000X5.000000*%
%ADD14R,5.000000X10.000000*%
%ADD15C,5.000000*%
%ADD16C,0.250000*%
%ADD17C,0.254000*%
G04 APERTURE END LIST*
D10*
G36*
X176734505Y3873796D02*
G01*
X176758773Y3870196D01*
X176782572Y3864235D01*
X176805671Y3855970D01*
X176827850Y3845480D01*
X176848893Y3832868D01*
X176868599Y3818253D01*
X176886777Y3801777D01*
X176903253Y3783599D01*
X176917868Y3763893D01*
X176930480Y3742850D01*
X176940970Y3720671D01*
X176949235Y3697572D01*
X176955196Y3673773D01*
X176958796Y3649505D01*
X176960000Y3625001D01*
X176960000Y2724999D01*
X176958796Y2700495D01*
X176955196Y2676227D01*
X176949235Y2652428D01*
X176940970Y2629329D01*
X176930480Y2607150D01*
X176917868Y2586107D01*
X176903253Y2566401D01*
X176886777Y2548223D01*
X176868599Y2531747D01*
X176848893Y2517132D01*
X176827850Y2504520D01*
X176805671Y2494030D01*
X176782572Y2485765D01*
X176758773Y2479804D01*
X176734505Y2476204D01*
X176710001Y2475000D01*
X176059999Y2475000D01*
X176035495Y2476204D01*
X176011227Y2479804D01*
X175987428Y2485765D01*
X175964329Y2494030D01*
X175942150Y2504520D01*
X175921107Y2517132D01*
X175901401Y2531747D01*
X175883223Y2548223D01*
X175866747Y2566401D01*
X175852132Y2586107D01*
X175839520Y2607150D01*
X175829030Y2629329D01*
X175820765Y2652428D01*
X175814804Y2676227D01*
X175811204Y2700495D01*
X175810000Y2724999D01*
X175810000Y3625001D01*
X175811204Y3649505D01*
X175814804Y3673773D01*
X175820765Y3697572D01*
X175829030Y3720671D01*
X175839520Y3742850D01*
X175852132Y3763893D01*
X175866747Y3783599D01*
X175883223Y3801777D01*
X175901401Y3818253D01*
X175921107Y3832868D01*
X175942150Y3845480D01*
X175964329Y3855970D01*
X175987428Y3864235D01*
X176011227Y3870196D01*
X176035495Y3873796D01*
X176059999Y3875000D01*
X176710001Y3875000D01*
X176734505Y3873796D01*
X176734505Y3873796D01*
G37*
D11*
X176385000Y3175000D03*
D10*
G36*
X178784505Y3873796D02*
G01*
X178808773Y3870196D01*
X178832572Y3864235D01*
X178855671Y3855970D01*
X178877850Y3845480D01*
X178898893Y3832868D01*
X178918599Y3818253D01*
X178936777Y3801777D01*
X178953253Y3783599D01*
X178967868Y3763893D01*
X178980480Y3742850D01*
X178990970Y3720671D01*
X178999235Y3697572D01*
X179005196Y3673773D01*
X179008796Y3649505D01*
X179010000Y3625001D01*
X179010000Y2724999D01*
X179008796Y2700495D01*
X179005196Y2676227D01*
X178999235Y2652428D01*
X178990970Y2629329D01*
X178980480Y2607150D01*
X178967868Y2586107D01*
X178953253Y2566401D01*
X178936777Y2548223D01*
X178918599Y2531747D01*
X178898893Y2517132D01*
X178877850Y2504520D01*
X178855671Y2494030D01*
X178832572Y2485765D01*
X178808773Y2479804D01*
X178784505Y2476204D01*
X178760001Y2475000D01*
X178109999Y2475000D01*
X178085495Y2476204D01*
X178061227Y2479804D01*
X178037428Y2485765D01*
X178014329Y2494030D01*
X177992150Y2504520D01*
X177971107Y2517132D01*
X177951401Y2531747D01*
X177933223Y2548223D01*
X177916747Y2566401D01*
X177902132Y2586107D01*
X177889520Y2607150D01*
X177879030Y2629329D01*
X177870765Y2652428D01*
X177864804Y2676227D01*
X177861204Y2700495D01*
X177860000Y2724999D01*
X177860000Y3625001D01*
X177861204Y3649505D01*
X177864804Y3673773D01*
X177870765Y3697572D01*
X177879030Y3720671D01*
X177889520Y3742850D01*
X177902132Y3763893D01*
X177916747Y3783599D01*
X177933223Y3801777D01*
X177951401Y3818253D01*
X177971107Y3832868D01*
X177992150Y3845480D01*
X178014329Y3855970D01*
X178037428Y3864235D01*
X178061227Y3870196D01*
X178085495Y3873796D01*
X178109999Y3875000D01*
X178760001Y3875000D01*
X178784505Y3873796D01*
X178784505Y3873796D01*
G37*
D11*
X178435000Y3175000D03*
D10*
G36*
X173069505Y3873796D02*
G01*
X173093773Y3870196D01*
X173117572Y3864235D01*
X173140671Y3855970D01*
X173162850Y3845480D01*
X173183893Y3832868D01*
X173203599Y3818253D01*
X173221777Y3801777D01*
X173238253Y3783599D01*
X173252868Y3763893D01*
X173265480Y3742850D01*
X173275970Y3720671D01*
X173284235Y3697572D01*
X173290196Y3673773D01*
X173293796Y3649505D01*
X173295000Y3625001D01*
X173295000Y2724999D01*
X173293796Y2700495D01*
X173290196Y2676227D01*
X173284235Y2652428D01*
X173275970Y2629329D01*
X173265480Y2607150D01*
X173252868Y2586107D01*
X173238253Y2566401D01*
X173221777Y2548223D01*
X173203599Y2531747D01*
X173183893Y2517132D01*
X173162850Y2504520D01*
X173140671Y2494030D01*
X173117572Y2485765D01*
X173093773Y2479804D01*
X173069505Y2476204D01*
X173045001Y2475000D01*
X172394999Y2475000D01*
X172370495Y2476204D01*
X172346227Y2479804D01*
X172322428Y2485765D01*
X172299329Y2494030D01*
X172277150Y2504520D01*
X172256107Y2517132D01*
X172236401Y2531747D01*
X172218223Y2548223D01*
X172201747Y2566401D01*
X172187132Y2586107D01*
X172174520Y2607150D01*
X172164030Y2629329D01*
X172155765Y2652428D01*
X172149804Y2676227D01*
X172146204Y2700495D01*
X172145000Y2724999D01*
X172145000Y3625001D01*
X172146204Y3649505D01*
X172149804Y3673773D01*
X172155765Y3697572D01*
X172164030Y3720671D01*
X172174520Y3742850D01*
X172187132Y3763893D01*
X172201747Y3783599D01*
X172218223Y3801777D01*
X172236401Y3818253D01*
X172256107Y3832868D01*
X172277150Y3845480D01*
X172299329Y3855970D01*
X172322428Y3864235D01*
X172346227Y3870196D01*
X172370495Y3873796D01*
X172394999Y3875000D01*
X173045001Y3875000D01*
X173069505Y3873796D01*
X173069505Y3873796D01*
G37*
D11*
X172720000Y3175000D03*
D10*
G36*
X171019505Y3873796D02*
G01*
X171043773Y3870196D01*
X171067572Y3864235D01*
X171090671Y3855970D01*
X171112850Y3845480D01*
X171133893Y3832868D01*
X171153599Y3818253D01*
X171171777Y3801777D01*
X171188253Y3783599D01*
X171202868Y3763893D01*
X171215480Y3742850D01*
X171225970Y3720671D01*
X171234235Y3697572D01*
X171240196Y3673773D01*
X171243796Y3649505D01*
X171245000Y3625001D01*
X171245000Y2724999D01*
X171243796Y2700495D01*
X171240196Y2676227D01*
X171234235Y2652428D01*
X171225970Y2629329D01*
X171215480Y2607150D01*
X171202868Y2586107D01*
X171188253Y2566401D01*
X171171777Y2548223D01*
X171153599Y2531747D01*
X171133893Y2517132D01*
X171112850Y2504520D01*
X171090671Y2494030D01*
X171067572Y2485765D01*
X171043773Y2479804D01*
X171019505Y2476204D01*
X170995001Y2475000D01*
X170344999Y2475000D01*
X170320495Y2476204D01*
X170296227Y2479804D01*
X170272428Y2485765D01*
X170249329Y2494030D01*
X170227150Y2504520D01*
X170206107Y2517132D01*
X170186401Y2531747D01*
X170168223Y2548223D01*
X170151747Y2566401D01*
X170137132Y2586107D01*
X170124520Y2607150D01*
X170114030Y2629329D01*
X170105765Y2652428D01*
X170099804Y2676227D01*
X170096204Y2700495D01*
X170095000Y2724999D01*
X170095000Y3625001D01*
X170096204Y3649505D01*
X170099804Y3673773D01*
X170105765Y3697572D01*
X170114030Y3720671D01*
X170124520Y3742850D01*
X170137132Y3763893D01*
X170151747Y3783599D01*
X170168223Y3801777D01*
X170186401Y3818253D01*
X170206107Y3832868D01*
X170227150Y3845480D01*
X170249329Y3855970D01*
X170272428Y3864235D01*
X170296227Y3870196D01*
X170320495Y3873796D01*
X170344999Y3875000D01*
X170995001Y3875000D01*
X171019505Y3873796D01*
X171019505Y3873796D01*
G37*
D11*
X170670000Y3175000D03*
D12*
X137795000Y5715000D03*
X137795000Y-24130000D03*
X211455000Y5715000D03*
X211455000Y-24130000D03*
D13*
X140970000Y-1905000D03*
X208280000Y-1905000D03*
X140970000Y-8890000D03*
X208280000Y-8890000D03*
X140970000Y-15875000D03*
X208280000Y-15875000D03*
D14*
X156845000Y-18415000D03*
X163830000Y-18415000D03*
X170815000Y-18415000D03*
X193675000Y-18415000D03*
X186690000Y-18415000D03*
X179705000Y-18415000D03*
D15*
X179705000Y-1905000D02*
X179705000Y-18415000D01*
X179705000Y-1905000D02*
X208280000Y-1905000D01*
X170815000Y-8415000D02*
X170815000Y-1905000D01*
X170815000Y-1905000D02*
X179705000Y-1905000D01*
X170815000Y-18415000D02*
X170815000Y-8415000D01*
X140970000Y-1905000D02*
X170815000Y-1905000D01*
D16*
X178435000Y-635000D02*
X179705000Y-1905000D01*
X178435000Y3175000D02*
X178435000Y-635000D01*
D15*
X163830000Y-13039998D02*
X163830000Y-18415000D01*
X159680002Y-8890000D02*
X163830000Y-13039998D01*
X140970000Y-8890000D02*
X159680002Y-8890000D01*
X186690000Y-13039998D02*
X186690000Y-18415000D01*
X190839998Y-8890000D02*
X186690000Y-13039998D01*
X208280000Y-8890000D02*
X190839998Y-8890000D01*
X196215000Y-15875000D02*
X193675000Y-18415000D01*
X208280000Y-15875000D02*
X196215000Y-15875000D01*
X154305000Y-15875000D02*
X156845000Y-18415000D01*
X140970000Y-15875000D02*
X154305000Y-15875000D01*
D16*
X176385000Y3175000D02*
X172720000Y3175000D01*
D17*
G36*
X215240000Y6344082D02*
G01*
X215142623Y6833628D01*
X214853533Y7531554D01*
X214433839Y8159670D01*
X213899670Y8693839D01*
X213271554Y9113533D01*
X212573628Y9402623D01*
X211832715Y9550000D01*
X211077285Y9550000D01*
X210336372Y9402623D01*
X209638446Y9113533D01*
X209010330Y8693839D01*
X208476161Y8159670D01*
X208056467Y7531554D01*
X207767377Y6833628D01*
X207620000Y6092715D01*
X207620000Y5337285D01*
X207767377Y4596372D01*
X208056467Y3898446D01*
X208476161Y3270330D01*
X209010330Y2736161D01*
X209638446Y2316467D01*
X210336372Y2027377D01*
X211077285Y1880000D01*
X211832715Y1880000D01*
X212573628Y2027377D01*
X213271554Y2316467D01*
X213899670Y2736161D01*
X214433839Y3270330D01*
X214853533Y3898446D01*
X215142623Y4596372D01*
X215240000Y5085918D01*
X215240001Y-23500923D01*
X215142623Y-23011372D01*
X214853533Y-22313446D01*
X214433839Y-21685330D01*
X213899670Y-21151161D01*
X213271554Y-20731467D01*
X212573628Y-20442377D01*
X211832715Y-20295000D01*
X211077285Y-20295000D01*
X210336372Y-20442377D01*
X209638446Y-20731467D01*
X209010330Y-21151161D01*
X208476161Y-21685330D01*
X208056467Y-22313446D01*
X207767377Y-23011372D01*
X207620000Y-23752285D01*
X207620000Y-24507715D01*
X207767377Y-25248628D01*
X208056467Y-25946554D01*
X208476161Y-26574670D01*
X209010330Y-27108839D01*
X209638446Y-27528533D01*
X210336372Y-27817623D01*
X211077285Y-27965000D01*
X211832715Y-27965000D01*
X212573628Y-27817623D01*
X213271554Y-27528533D01*
X213899670Y-27108839D01*
X214433839Y-26574670D01*
X214853533Y-25946554D01*
X215142623Y-25248628D01*
X215240001Y-24759077D01*
X215240001Y-28550000D01*
X134010000Y-28550000D01*
X134010000Y-24759082D01*
X134107377Y-25248628D01*
X134396467Y-25946554D01*
X134816161Y-26574670D01*
X135350330Y-27108839D01*
X135978446Y-27528533D01*
X136676372Y-27817623D01*
X137417285Y-27965000D01*
X138172715Y-27965000D01*
X138913628Y-27817623D01*
X139611554Y-27528533D01*
X140239670Y-27108839D01*
X140773839Y-26574670D01*
X141193533Y-25946554D01*
X141482623Y-25248628D01*
X141630000Y-24507715D01*
X141630000Y-23752285D01*
X141562910Y-23415000D01*
X153706928Y-23415000D01*
X153719188Y-23539482D01*
X153755498Y-23659180D01*
X153814463Y-23769494D01*
X153893815Y-23866185D01*
X153990506Y-23945537D01*
X154100820Y-24004502D01*
X154220518Y-24040812D01*
X154345000Y-24053072D01*
X156559250Y-24050000D01*
X156718000Y-23891250D01*
X156718000Y-18542000D01*
X156972000Y-18542000D01*
X156972000Y-23891250D01*
X157130750Y-24050000D01*
X159345000Y-24053072D01*
X159469482Y-24040812D01*
X159589180Y-24004502D01*
X159699494Y-23945537D01*
X159796185Y-23866185D01*
X159875537Y-23769494D01*
X159934502Y-23659180D01*
X159970812Y-23539482D01*
X159983072Y-23415000D01*
X159980000Y-18700750D01*
X159821250Y-18542000D01*
X156972000Y-18542000D01*
X156718000Y-18542000D01*
X153868750Y-18542000D01*
X153710000Y-18700750D01*
X153706928Y-23415000D01*
X141562910Y-23415000D01*
X141482623Y-23011372D01*
X141193533Y-22313446D01*
X140773839Y-21685330D01*
X140239670Y-21151161D01*
X139611554Y-20731467D01*
X138913628Y-20442377D01*
X138172715Y-20295000D01*
X137417285Y-20295000D01*
X136676372Y-20442377D01*
X135978446Y-20731467D01*
X135350330Y-21151161D01*
X134816161Y-21685330D01*
X134396467Y-22313446D01*
X134107377Y-23011372D01*
X134010000Y-23500918D01*
X134010000Y-18375000D01*
X135331928Y-18375000D01*
X135344188Y-18499482D01*
X135380498Y-18619180D01*
X135439463Y-18729494D01*
X135518815Y-18826185D01*
X135615506Y-18905537D01*
X135725820Y-18964502D01*
X135845518Y-19000812D01*
X135970000Y-19013072D01*
X140684250Y-19010000D01*
X140843000Y-18851250D01*
X140843000Y-16002000D01*
X141097000Y-16002000D01*
X141097000Y-18851250D01*
X141255750Y-19010000D01*
X145970000Y-19013072D01*
X146094482Y-19000812D01*
X146214180Y-18964502D01*
X146324494Y-18905537D01*
X146421185Y-18826185D01*
X146500537Y-18729494D01*
X146559502Y-18619180D01*
X146595812Y-18499482D01*
X146608072Y-18375000D01*
X146605000Y-16160750D01*
X146446250Y-16002000D01*
X141097000Y-16002000D01*
X140843000Y-16002000D01*
X135493750Y-16002000D01*
X135335000Y-16160750D01*
X135331928Y-18375000D01*
X134010000Y-18375000D01*
X134010000Y-13375000D01*
X135331928Y-13375000D01*
X135335000Y-15589250D01*
X135493750Y-15748000D01*
X140843000Y-15748000D01*
X140843000Y-12898750D01*
X141097000Y-12898750D01*
X141097000Y-15748000D01*
X146446250Y-15748000D01*
X146605000Y-15589250D01*
X146608016Y-13415000D01*
X153706928Y-13415000D01*
X153710000Y-18129250D01*
X153868750Y-18288000D01*
X156718000Y-18288000D01*
X156718000Y-12938750D01*
X156559250Y-12780000D01*
X154345000Y-12776928D01*
X154220518Y-12789188D01*
X154100820Y-12825498D01*
X153990506Y-12884463D01*
X153893815Y-12963815D01*
X153814463Y-13060506D01*
X153755498Y-13170820D01*
X153719188Y-13290518D01*
X153706928Y-13415000D01*
X146608016Y-13415000D01*
X146608072Y-13375000D01*
X146595812Y-13250518D01*
X146559502Y-13130820D01*
X146500537Y-13020506D01*
X146421185Y-12923815D01*
X146324494Y-12844463D01*
X146214180Y-12785498D01*
X146094482Y-12749188D01*
X145970000Y-12736928D01*
X141255750Y-12740000D01*
X141097000Y-12898750D01*
X140843000Y-12898750D01*
X140684250Y-12740000D01*
X135970000Y-12736928D01*
X135845518Y-12749188D01*
X135725820Y-12785498D01*
X135615506Y-12844463D01*
X135518815Y-12923815D01*
X135439463Y-13020506D01*
X135380498Y-13130820D01*
X135344188Y-13250518D01*
X135331928Y-13375000D01*
X134010000Y-13375000D01*
X134010000Y-6390000D01*
X135331928Y-6390000D01*
X135331928Y-11390000D01*
X135344188Y-11514482D01*
X135380498Y-11634180D01*
X135439463Y-11744494D01*
X135518815Y-11841185D01*
X135615506Y-11920537D01*
X135725820Y-11979502D01*
X135845518Y-12015812D01*
X135970000Y-12028072D01*
X145970000Y-12028072D01*
X146001192Y-12025000D01*
X158381444Y-12025000D01*
X159133664Y-12777221D01*
X157130750Y-12780000D01*
X156972000Y-12938750D01*
X156972000Y-18288000D01*
X159821250Y-18288000D01*
X159980000Y-18129250D01*
X159982934Y-13626491D01*
X160691928Y-14335486D01*
X160691928Y-23415000D01*
X160704188Y-23539482D01*
X160740498Y-23659180D01*
X160799463Y-23769494D01*
X160878815Y-23866185D01*
X160975506Y-23945537D01*
X161085820Y-24004502D01*
X161205518Y-24040812D01*
X161330000Y-24053072D01*
X166330000Y-24053072D01*
X166454482Y-24040812D01*
X166574180Y-24004502D01*
X166684494Y-23945537D01*
X166781185Y-23866185D01*
X166860537Y-23769494D01*
X166919502Y-23659180D01*
X166955812Y-23539482D01*
X166968072Y-23415000D01*
X166968072Y-13415000D01*
X166965000Y-13383808D01*
X166965000Y-13193992D01*
X166980167Y-13039997D01*
X166965000Y-12886002D01*
X166965000Y-12885996D01*
X166919638Y-12425431D01*
X166740376Y-11834481D01*
X166449269Y-11289858D01*
X166209651Y-10997883D01*
X166155675Y-10932113D01*
X166155674Y-10932112D01*
X166057505Y-10812493D01*
X165937887Y-10714325D01*
X162005684Y-6782124D01*
X161907507Y-6662495D01*
X161430142Y-6270731D01*
X160885519Y-5979624D01*
X160294569Y-5800362D01*
X159834004Y-5755000D01*
X159833997Y-5755000D01*
X159680002Y-5739833D01*
X159526007Y-5755000D01*
X146001192Y-5755000D01*
X145970000Y-5751928D01*
X135970000Y-5751928D01*
X135845518Y-5764188D01*
X135725820Y-5800498D01*
X135615506Y-5859463D01*
X135518815Y-5938815D01*
X135439463Y-6035506D01*
X135380498Y-6145820D01*
X135344188Y-6265518D01*
X135331928Y-6390000D01*
X134010000Y-6390000D01*
X134010000Y595000D01*
X135331928Y595000D01*
X135331928Y-4405000D01*
X135344188Y-4529482D01*
X135380498Y-4649180D01*
X135439463Y-4759494D01*
X135518815Y-4856185D01*
X135615506Y-4935537D01*
X135725820Y-4994502D01*
X135845518Y-5030812D01*
X135970000Y-5043072D01*
X145970000Y-5043072D01*
X146001192Y-5040000D01*
X167680001Y-5040000D01*
X167680000Y-8569001D01*
X167680001Y-8569011D01*
X167680001Y-13383803D01*
X167676928Y-13415000D01*
X167676928Y-23415000D01*
X167689188Y-23539482D01*
X167725498Y-23659180D01*
X167784463Y-23769494D01*
X167863815Y-23866185D01*
X167960506Y-23945537D01*
X168070820Y-24004502D01*
X168190518Y-24040812D01*
X168315000Y-24053072D01*
X173315000Y-24053072D01*
X173439482Y-24040812D01*
X173559180Y-24004502D01*
X173669494Y-23945537D01*
X173766185Y-23866185D01*
X173845537Y-23769494D01*
X173904502Y-23659180D01*
X173940812Y-23539482D01*
X173953072Y-23415000D01*
X173953072Y-13415000D01*
X173950000Y-13383808D01*
X173950000Y-5040000D01*
X176570000Y-5040000D01*
X176570001Y-13383801D01*
X176566928Y-13415000D01*
X176566928Y-23415000D01*
X176579188Y-23539482D01*
X176615498Y-23659180D01*
X176674463Y-23769494D01*
X176753815Y-23866185D01*
X176850506Y-23945537D01*
X176960820Y-24004502D01*
X177080518Y-24040812D01*
X177205000Y-24053072D01*
X182205000Y-24053072D01*
X182329482Y-24040812D01*
X182449180Y-24004502D01*
X182559494Y-23945537D01*
X182656185Y-23866185D01*
X182735537Y-23769494D01*
X182794502Y-23659180D01*
X182830812Y-23539482D01*
X182843072Y-23415000D01*
X182843072Y-13415000D01*
X182840000Y-13383808D01*
X182840000Y-13039998D01*
X183539833Y-13039998D01*
X183555000Y-13193993D01*
X183555000Y-13383808D01*
X183551928Y-13415000D01*
X183551928Y-23415000D01*
X183564188Y-23539482D01*
X183600498Y-23659180D01*
X183659463Y-23769494D01*
X183738815Y-23866185D01*
X183835506Y-23945537D01*
X183945820Y-24004502D01*
X184065518Y-24040812D01*
X184190000Y-24053072D01*
X189190000Y-24053072D01*
X189314482Y-24040812D01*
X189434180Y-24004502D01*
X189544494Y-23945537D01*
X189641185Y-23866185D01*
X189720537Y-23769494D01*
X189779502Y-23659180D01*
X189815812Y-23539482D01*
X189828072Y-23415000D01*
X190536928Y-23415000D01*
X190549188Y-23539482D01*
X190585498Y-23659180D01*
X190644463Y-23769494D01*
X190723815Y-23866185D01*
X190820506Y-23945537D01*
X190930820Y-24004502D01*
X191050518Y-24040812D01*
X191175000Y-24053072D01*
X193389250Y-24050000D01*
X193548000Y-23891250D01*
X193548000Y-18542000D01*
X193802000Y-18542000D01*
X193802000Y-23891250D01*
X193960750Y-24050000D01*
X196175000Y-24053072D01*
X196299482Y-24040812D01*
X196419180Y-24004502D01*
X196529494Y-23945537D01*
X196626185Y-23866185D01*
X196705537Y-23769494D01*
X196764502Y-23659180D01*
X196800812Y-23539482D01*
X196813072Y-23415000D01*
X196810000Y-18700750D01*
X196651250Y-18542000D01*
X193802000Y-18542000D01*
X193548000Y-18542000D01*
X190698750Y-18542000D01*
X190540000Y-18700750D01*
X190536928Y-23415000D01*
X189828072Y-23415000D01*
X189828072Y-18375000D01*
X202641928Y-18375000D01*
X202654188Y-18499482D01*
X202690498Y-18619180D01*
X202749463Y-18729494D01*
X202828815Y-18826185D01*
X202925506Y-18905537D01*
X203035820Y-18964502D01*
X203155518Y-19000812D01*
X203280000Y-19013072D01*
X207994250Y-19010000D01*
X208153000Y-18851250D01*
X208153000Y-16002000D01*
X208407000Y-16002000D01*
X208407000Y-18851250D01*
X208565750Y-19010000D01*
X213280000Y-19013072D01*
X213404482Y-19000812D01*
X213524180Y-18964502D01*
X213634494Y-18905537D01*
X213731185Y-18826185D01*
X213810537Y-18729494D01*
X213869502Y-18619180D01*
X213905812Y-18499482D01*
X213918072Y-18375000D01*
X213915000Y-16160750D01*
X213756250Y-16002000D01*
X208407000Y-16002000D01*
X208153000Y-16002000D01*
X202803750Y-16002000D01*
X202645000Y-16160750D01*
X202641928Y-18375000D01*
X189828072Y-18375000D01*
X189828072Y-14335484D01*
X190537066Y-13626491D01*
X190540000Y-18129250D01*
X190698750Y-18288000D01*
X193548000Y-18288000D01*
X193548000Y-12938750D01*
X193802000Y-12938750D01*
X193802000Y-18288000D01*
X196651250Y-18288000D01*
X196810000Y-18129250D01*
X196813072Y-13415000D01*
X196809133Y-13375000D01*
X202641928Y-13375000D01*
X202645000Y-15589250D01*
X202803750Y-15748000D01*
X208153000Y-15748000D01*
X208153000Y-12898750D01*
X208407000Y-12898750D01*
X208407000Y-15748000D01*
X213756250Y-15748000D01*
X213915000Y-15589250D01*
X213918072Y-13375000D01*
X213905812Y-13250518D01*
X213869502Y-13130820D01*
X213810537Y-13020506D01*
X213731185Y-12923815D01*
X213634494Y-12844463D01*
X213524180Y-12785498D01*
X213404482Y-12749188D01*
X213280000Y-12736928D01*
X208565750Y-12740000D01*
X208407000Y-12898750D01*
X208153000Y-12898750D01*
X207994250Y-12740000D01*
X203280000Y-12736928D01*
X203155518Y-12749188D01*
X203035820Y-12785498D01*
X202925506Y-12844463D01*
X202828815Y-12923815D01*
X202749463Y-13020506D01*
X202690498Y-13130820D01*
X202654188Y-13250518D01*
X202641928Y-13375000D01*
X196809133Y-13375000D01*
X196800812Y-13290518D01*
X196764502Y-13170820D01*
X196705537Y-13060506D01*
X196626185Y-12963815D01*
X196529494Y-12884463D01*
X196419180Y-12825498D01*
X196299482Y-12789188D01*
X196175000Y-12776928D01*
X193960750Y-12780000D01*
X193802000Y-12938750D01*
X193548000Y-12938750D01*
X193389250Y-12780000D01*
X191386336Y-12777221D01*
X192138558Y-12025000D01*
X203248808Y-12025000D01*
X203280000Y-12028072D01*
X213280000Y-12028072D01*
X213404482Y-12015812D01*
X213524180Y-11979502D01*
X213634494Y-11920537D01*
X213731185Y-11841185D01*
X213810537Y-11744494D01*
X213869502Y-11634180D01*
X213905812Y-11514482D01*
X213918072Y-11390000D01*
X213918072Y-6390000D01*
X213905812Y-6265518D01*
X213869502Y-6145820D01*
X213810537Y-6035506D01*
X213731185Y-5938815D01*
X213634494Y-5859463D01*
X213524180Y-5800498D01*
X213404482Y-5764188D01*
X213280000Y-5751928D01*
X203280000Y-5751928D01*
X203248808Y-5755000D01*
X190993992Y-5755000D01*
X190839997Y-5739833D01*
X190686002Y-5755000D01*
X190685996Y-5755000D01*
X190287468Y-5794252D01*
X190225430Y-5800362D01*
X190046168Y-5854741D01*
X189634481Y-5979624D01*
X189089858Y-6270731D01*
X188612493Y-6662495D01*
X188514324Y-6782114D01*
X184582124Y-10714316D01*
X184462495Y-10812493D01*
X184070731Y-11289859D01*
X183779624Y-11834482D01*
X183654741Y-12246169D01*
X183600363Y-12425430D01*
X183600362Y-12425432D01*
X183555000Y-12885997D01*
X183555000Y-12886003D01*
X183539833Y-13039998D01*
X182840000Y-13039998D01*
X182840000Y-5040000D01*
X203248808Y-5040000D01*
X203280000Y-5043072D01*
X213280000Y-5043072D01*
X213404482Y-5030812D01*
X213524180Y-4994502D01*
X213634494Y-4935537D01*
X213731185Y-4856185D01*
X213810537Y-4759494D01*
X213869502Y-4649180D01*
X213905812Y-4529482D01*
X213918072Y-4405000D01*
X213918072Y595000D01*
X213905812Y719482D01*
X213869502Y839180D01*
X213810537Y949494D01*
X213731185Y1046185D01*
X213634494Y1125537D01*
X213524180Y1184502D01*
X213404482Y1220812D01*
X213280000Y1233072D01*
X203280000Y1233072D01*
X203248808Y1230000D01*
X179859002Y1230000D01*
X179705000Y1245168D01*
X179550998Y1230000D01*
X179195000Y1230000D01*
X179195000Y1955386D01*
X179253387Y1986595D01*
X179387962Y2097038D01*
X179498405Y2231613D01*
X179580472Y2385149D01*
X179631008Y2551745D01*
X179648072Y2724999D01*
X179648072Y3625001D01*
X179631008Y3798255D01*
X179580472Y3964851D01*
X179498405Y4118387D01*
X179387962Y4252962D01*
X179253387Y4363405D01*
X179099851Y4445472D01*
X178933255Y4496008D01*
X178760001Y4513072D01*
X178109999Y4513072D01*
X177936745Y4496008D01*
X177770149Y4445472D01*
X177616613Y4363405D01*
X177482038Y4252962D01*
X177410000Y4165184D01*
X177337962Y4252962D01*
X177203387Y4363405D01*
X177049851Y4445472D01*
X176883255Y4496008D01*
X176710001Y4513072D01*
X176059999Y4513072D01*
X175886745Y4496008D01*
X175720149Y4445472D01*
X175566613Y4363405D01*
X175432038Y4252962D01*
X175321595Y4118387D01*
X175239528Y3964851D01*
X175230473Y3935000D01*
X173874527Y3935000D01*
X173865472Y3964851D01*
X173783405Y4118387D01*
X173672962Y4252962D01*
X173538387Y4363405D01*
X173384851Y4445472D01*
X173218255Y4496008D01*
X173045001Y4513072D01*
X172394999Y4513072D01*
X172221745Y4496008D01*
X172055149Y4445472D01*
X171901613Y4363405D01*
X171767038Y4252962D01*
X171761658Y4246406D01*
X171696185Y4326185D01*
X171599494Y4405537D01*
X171489180Y4464502D01*
X171369482Y4500812D01*
X171245000Y4513072D01*
X170955750Y4510000D01*
X170797000Y4351250D01*
X170797000Y3302000D01*
X170817000Y3302000D01*
X170817000Y3048000D01*
X170797000Y3048000D01*
X170797000Y1998750D01*
X170955750Y1840000D01*
X171245000Y1836928D01*
X171369482Y1849188D01*
X171489180Y1885498D01*
X171599494Y1944463D01*
X171696185Y2023815D01*
X171761658Y2103594D01*
X171767038Y2097038D01*
X171901613Y1986595D01*
X172055149Y1904528D01*
X172221745Y1853992D01*
X172394999Y1836928D01*
X173045001Y1836928D01*
X173218255Y1853992D01*
X173384851Y1904528D01*
X173538387Y1986595D01*
X173672962Y2097038D01*
X173783405Y2231613D01*
X173865472Y2385149D01*
X173874527Y2415000D01*
X175230473Y2415000D01*
X175239528Y2385149D01*
X175321595Y2231613D01*
X175432038Y2097038D01*
X175566613Y1986595D01*
X175720149Y1904528D01*
X175886745Y1853992D01*
X176059999Y1836928D01*
X176710001Y1836928D01*
X176883255Y1853992D01*
X177049851Y1904528D01*
X177203387Y1986595D01*
X177337962Y2097038D01*
X177410000Y2184816D01*
X177482038Y2097038D01*
X177616613Y1986595D01*
X177675000Y1955386D01*
X177675001Y1230000D01*
X170969002Y1230000D01*
X170815000Y1245168D01*
X170660998Y1230000D01*
X146001192Y1230000D01*
X145970000Y1233072D01*
X135970000Y1233072D01*
X135845518Y1220812D01*
X135725820Y1184502D01*
X135615506Y1125537D01*
X135518815Y1046185D01*
X135439463Y949494D01*
X135380498Y839180D01*
X135344188Y719482D01*
X135331928Y595000D01*
X134010000Y595000D01*
X134010000Y5085918D01*
X134107377Y4596372D01*
X134396467Y3898446D01*
X134816161Y3270330D01*
X135350330Y2736161D01*
X135978446Y2316467D01*
X136676372Y2027377D01*
X137417285Y1880000D01*
X138172715Y1880000D01*
X138913628Y2027377D01*
X139611554Y2316467D01*
X139848815Y2475000D01*
X169456928Y2475000D01*
X169469188Y2350518D01*
X169505498Y2230820D01*
X169564463Y2120506D01*
X169643815Y2023815D01*
X169740506Y1944463D01*
X169850820Y1885498D01*
X169970518Y1849188D01*
X170095000Y1836928D01*
X170384250Y1840000D01*
X170543000Y1998750D01*
X170543000Y3048000D01*
X169618750Y3048000D01*
X169460000Y2889250D01*
X169456928Y2475000D01*
X139848815Y2475000D01*
X140239670Y2736161D01*
X140773839Y3270330D01*
X141177866Y3875000D01*
X169456928Y3875000D01*
X169460000Y3460750D01*
X169618750Y3302000D01*
X170543000Y3302000D01*
X170543000Y4351250D01*
X170384250Y4510000D01*
X170095000Y4513072D01*
X169970518Y4500812D01*
X169850820Y4464502D01*
X169740506Y4405537D01*
X169643815Y4326185D01*
X169564463Y4229494D01*
X169505498Y4119180D01*
X169469188Y3999482D01*
X169456928Y3875000D01*
X141177866Y3875000D01*
X141193533Y3898446D01*
X141482623Y4596372D01*
X141630000Y5337285D01*
X141630000Y6092715D01*
X141482623Y6833628D01*
X141193533Y7531554D01*
X140773839Y8159670D01*
X140239670Y8693839D01*
X139611554Y9113533D01*
X138913628Y9402623D01*
X138172715Y9550000D01*
X137417285Y9550000D01*
X136676372Y9402623D01*
X135978446Y9113533D01*
X135350330Y8693839D01*
X134816161Y8159670D01*
X134396467Y7531554D01*
X134107377Y6833628D01*
X134010000Y6344082D01*
X134010000Y10135000D01*
X215240000Y10135000D01*
X215240000Y6344082D01*
X215240000Y6344082D01*
G37*
X215240000Y6344082D02*
X215142623Y6833628D01*
X214853533Y7531554D01*
X214433839Y8159670D01*
X213899670Y8693839D01*
X213271554Y9113533D01*
X212573628Y9402623D01*
X211832715Y9550000D01*
X211077285Y9550000D01*
X210336372Y9402623D01*
X209638446Y9113533D01*
X209010330Y8693839D01*
X208476161Y8159670D01*
X208056467Y7531554D01*
X207767377Y6833628D01*
X207620000Y6092715D01*
X207620000Y5337285D01*
X207767377Y4596372D01*
X208056467Y3898446D01*
X208476161Y3270330D01*
X209010330Y2736161D01*
X209638446Y2316467D01*
X210336372Y2027377D01*
X211077285Y1880000D01*
X211832715Y1880000D01*
X212573628Y2027377D01*
X213271554Y2316467D01*
X213899670Y2736161D01*
X214433839Y3270330D01*
X214853533Y3898446D01*
X215142623Y4596372D01*
X215240000Y5085918D01*
X215240001Y-23500923D01*
X215142623Y-23011372D01*
X214853533Y-22313446D01*
X214433839Y-21685330D01*
X213899670Y-21151161D01*
X213271554Y-20731467D01*
X212573628Y-20442377D01*
X211832715Y-20295000D01*
X211077285Y-20295000D01*
X210336372Y-20442377D01*
X209638446Y-20731467D01*
X209010330Y-21151161D01*
X208476161Y-21685330D01*
X208056467Y-22313446D01*
X207767377Y-23011372D01*
X207620000Y-23752285D01*
X207620000Y-24507715D01*
X207767377Y-25248628D01*
X208056467Y-25946554D01*
X208476161Y-26574670D01*
X209010330Y-27108839D01*
X209638446Y-27528533D01*
X210336372Y-27817623D01*
X211077285Y-27965000D01*
X211832715Y-27965000D01*
X212573628Y-27817623D01*
X213271554Y-27528533D01*
X213899670Y-27108839D01*
X214433839Y-26574670D01*
X214853533Y-25946554D01*
X215142623Y-25248628D01*
X215240001Y-24759077D01*
X215240001Y-28550000D01*
X134010000Y-28550000D01*
X134010000Y-24759082D01*
X134107377Y-25248628D01*
X134396467Y-25946554D01*
X134816161Y-26574670D01*
X135350330Y-27108839D01*
X135978446Y-27528533D01*
X136676372Y-27817623D01*
X137417285Y-27965000D01*
X138172715Y-27965000D01*
X138913628Y-27817623D01*
X139611554Y-27528533D01*
X140239670Y-27108839D01*
X140773839Y-26574670D01*
X141193533Y-25946554D01*
X141482623Y-25248628D01*
X141630000Y-24507715D01*
X141630000Y-23752285D01*
X141562910Y-23415000D01*
X153706928Y-23415000D01*
X153719188Y-23539482D01*
X153755498Y-23659180D01*
X153814463Y-23769494D01*
X153893815Y-23866185D01*
X153990506Y-23945537D01*
X154100820Y-24004502D01*
X154220518Y-24040812D01*
X154345000Y-24053072D01*
X156559250Y-24050000D01*
X156718000Y-23891250D01*
X156718000Y-18542000D01*
X156972000Y-18542000D01*
X156972000Y-23891250D01*
X157130750Y-24050000D01*
X159345000Y-24053072D01*
X159469482Y-24040812D01*
X159589180Y-24004502D01*
X159699494Y-23945537D01*
X159796185Y-23866185D01*
X159875537Y-23769494D01*
X159934502Y-23659180D01*
X159970812Y-23539482D01*
X159983072Y-23415000D01*
X159980000Y-18700750D01*
X159821250Y-18542000D01*
X156972000Y-18542000D01*
X156718000Y-18542000D01*
X153868750Y-18542000D01*
X153710000Y-18700750D01*
X153706928Y-23415000D01*
X141562910Y-23415000D01*
X141482623Y-23011372D01*
X141193533Y-22313446D01*
X140773839Y-21685330D01*
X140239670Y-21151161D01*
X139611554Y-20731467D01*
X138913628Y-20442377D01*
X138172715Y-20295000D01*
X137417285Y-20295000D01*
X136676372Y-20442377D01*
X135978446Y-20731467D01*
X135350330Y-21151161D01*
X134816161Y-21685330D01*
X134396467Y-22313446D01*
X134107377Y-23011372D01*
X134010000Y-23500918D01*
X134010000Y-18375000D01*
X135331928Y-18375000D01*
X135344188Y-18499482D01*
X135380498Y-18619180D01*
X135439463Y-18729494D01*
X135518815Y-18826185D01*
X135615506Y-18905537D01*
X135725820Y-18964502D01*
X135845518Y-19000812D01*
X135970000Y-19013072D01*
X140684250Y-19010000D01*
X140843000Y-18851250D01*
X140843000Y-16002000D01*
X141097000Y-16002000D01*
X141097000Y-18851250D01*
X141255750Y-19010000D01*
X145970000Y-19013072D01*
X146094482Y-19000812D01*
X146214180Y-18964502D01*
X146324494Y-18905537D01*
X146421185Y-18826185D01*
X146500537Y-18729494D01*
X146559502Y-18619180D01*
X146595812Y-18499482D01*
X146608072Y-18375000D01*
X146605000Y-16160750D01*
X146446250Y-16002000D01*
X141097000Y-16002000D01*
X140843000Y-16002000D01*
X135493750Y-16002000D01*
X135335000Y-16160750D01*
X135331928Y-18375000D01*
X134010000Y-18375000D01*
X134010000Y-13375000D01*
X135331928Y-13375000D01*
X135335000Y-15589250D01*
X135493750Y-15748000D01*
X140843000Y-15748000D01*
X140843000Y-12898750D01*
X141097000Y-12898750D01*
X141097000Y-15748000D01*
X146446250Y-15748000D01*
X146605000Y-15589250D01*
X146608016Y-13415000D01*
X153706928Y-13415000D01*
X153710000Y-18129250D01*
X153868750Y-18288000D01*
X156718000Y-18288000D01*
X156718000Y-12938750D01*
X156559250Y-12780000D01*
X154345000Y-12776928D01*
X154220518Y-12789188D01*
X154100820Y-12825498D01*
X153990506Y-12884463D01*
X153893815Y-12963815D01*
X153814463Y-13060506D01*
X153755498Y-13170820D01*
X153719188Y-13290518D01*
X153706928Y-13415000D01*
X146608016Y-13415000D01*
X146608072Y-13375000D01*
X146595812Y-13250518D01*
X146559502Y-13130820D01*
X146500537Y-13020506D01*
X146421185Y-12923815D01*
X146324494Y-12844463D01*
X146214180Y-12785498D01*
X146094482Y-12749188D01*
X145970000Y-12736928D01*
X141255750Y-12740000D01*
X141097000Y-12898750D01*
X140843000Y-12898750D01*
X140684250Y-12740000D01*
X135970000Y-12736928D01*
X135845518Y-12749188D01*
X135725820Y-12785498D01*
X135615506Y-12844463D01*
X135518815Y-12923815D01*
X135439463Y-13020506D01*
X135380498Y-13130820D01*
X135344188Y-13250518D01*
X135331928Y-13375000D01*
X134010000Y-13375000D01*
X134010000Y-6390000D01*
X135331928Y-6390000D01*
X135331928Y-11390000D01*
X135344188Y-11514482D01*
X135380498Y-11634180D01*
X135439463Y-11744494D01*
X135518815Y-11841185D01*
X135615506Y-11920537D01*
X135725820Y-11979502D01*
X135845518Y-12015812D01*
X135970000Y-12028072D01*
X145970000Y-12028072D01*
X146001192Y-12025000D01*
X158381444Y-12025000D01*
X159133664Y-12777221D01*
X157130750Y-12780000D01*
X156972000Y-12938750D01*
X156972000Y-18288000D01*
X159821250Y-18288000D01*
X159980000Y-18129250D01*
X159982934Y-13626491D01*
X160691928Y-14335486D01*
X160691928Y-23415000D01*
X160704188Y-23539482D01*
X160740498Y-23659180D01*
X160799463Y-23769494D01*
X160878815Y-23866185D01*
X160975506Y-23945537D01*
X161085820Y-24004502D01*
X161205518Y-24040812D01*
X161330000Y-24053072D01*
X166330000Y-24053072D01*
X166454482Y-24040812D01*
X166574180Y-24004502D01*
X166684494Y-23945537D01*
X166781185Y-23866185D01*
X166860537Y-23769494D01*
X166919502Y-23659180D01*
X166955812Y-23539482D01*
X166968072Y-23415000D01*
X166968072Y-13415000D01*
X166965000Y-13383808D01*
X166965000Y-13193992D01*
X166980167Y-13039997D01*
X166965000Y-12886002D01*
X166965000Y-12885996D01*
X166919638Y-12425431D01*
X166740376Y-11834481D01*
X166449269Y-11289858D01*
X166209651Y-10997883D01*
X166155675Y-10932113D01*
X166155674Y-10932112D01*
X166057505Y-10812493D01*
X165937887Y-10714325D01*
X162005684Y-6782124D01*
X161907507Y-6662495D01*
X161430142Y-6270731D01*
X160885519Y-5979624D01*
X160294569Y-5800362D01*
X159834004Y-5755000D01*
X159833997Y-5755000D01*
X159680002Y-5739833D01*
X159526007Y-5755000D01*
X146001192Y-5755000D01*
X145970000Y-5751928D01*
X135970000Y-5751928D01*
X135845518Y-5764188D01*
X135725820Y-5800498D01*
X135615506Y-5859463D01*
X135518815Y-5938815D01*
X135439463Y-6035506D01*
X135380498Y-6145820D01*
X135344188Y-6265518D01*
X135331928Y-6390000D01*
X134010000Y-6390000D01*
X134010000Y595000D01*
X135331928Y595000D01*
X135331928Y-4405000D01*
X135344188Y-4529482D01*
X135380498Y-4649180D01*
X135439463Y-4759494D01*
X135518815Y-4856185D01*
X135615506Y-4935537D01*
X135725820Y-4994502D01*
X135845518Y-5030812D01*
X135970000Y-5043072D01*
X145970000Y-5043072D01*
X146001192Y-5040000D01*
X167680001Y-5040000D01*
X167680000Y-8569001D01*
X167680001Y-8569011D01*
X167680001Y-13383803D01*
X167676928Y-13415000D01*
X167676928Y-23415000D01*
X167689188Y-23539482D01*
X167725498Y-23659180D01*
X167784463Y-23769494D01*
X167863815Y-23866185D01*
X167960506Y-23945537D01*
X168070820Y-24004502D01*
X168190518Y-24040812D01*
X168315000Y-24053072D01*
X173315000Y-24053072D01*
X173439482Y-24040812D01*
X173559180Y-24004502D01*
X173669494Y-23945537D01*
X173766185Y-23866185D01*
X173845537Y-23769494D01*
X173904502Y-23659180D01*
X173940812Y-23539482D01*
X173953072Y-23415000D01*
X173953072Y-13415000D01*
X173950000Y-13383808D01*
X173950000Y-5040000D01*
X176570000Y-5040000D01*
X176570001Y-13383801D01*
X176566928Y-13415000D01*
X176566928Y-23415000D01*
X176579188Y-23539482D01*
X176615498Y-23659180D01*
X176674463Y-23769494D01*
X176753815Y-23866185D01*
X176850506Y-23945537D01*
X176960820Y-24004502D01*
X177080518Y-24040812D01*
X177205000Y-24053072D01*
X182205000Y-24053072D01*
X182329482Y-24040812D01*
X182449180Y-24004502D01*
X182559494Y-23945537D01*
X182656185Y-23866185D01*
X182735537Y-23769494D01*
X182794502Y-23659180D01*
X182830812Y-23539482D01*
X182843072Y-23415000D01*
X182843072Y-13415000D01*
X182840000Y-13383808D01*
X182840000Y-13039998D01*
X183539833Y-13039998D01*
X183555000Y-13193993D01*
X183555000Y-13383808D01*
X183551928Y-13415000D01*
X183551928Y-23415000D01*
X183564188Y-23539482D01*
X183600498Y-23659180D01*
X183659463Y-23769494D01*
X183738815Y-23866185D01*
X183835506Y-23945537D01*
X183945820Y-24004502D01*
X184065518Y-24040812D01*
X184190000Y-24053072D01*
X189190000Y-24053072D01*
X189314482Y-24040812D01*
X189434180Y-24004502D01*
X189544494Y-23945537D01*
X189641185Y-23866185D01*
X189720537Y-23769494D01*
X189779502Y-23659180D01*
X189815812Y-23539482D01*
X189828072Y-23415000D01*
X190536928Y-23415000D01*
X190549188Y-23539482D01*
X190585498Y-23659180D01*
X190644463Y-23769494D01*
X190723815Y-23866185D01*
X190820506Y-23945537D01*
X190930820Y-24004502D01*
X191050518Y-24040812D01*
X191175000Y-24053072D01*
X193389250Y-24050000D01*
X193548000Y-23891250D01*
X193548000Y-18542000D01*
X193802000Y-18542000D01*
X193802000Y-23891250D01*
X193960750Y-24050000D01*
X196175000Y-24053072D01*
X196299482Y-24040812D01*
X196419180Y-24004502D01*
X196529494Y-23945537D01*
X196626185Y-23866185D01*
X196705537Y-23769494D01*
X196764502Y-23659180D01*
X196800812Y-23539482D01*
X196813072Y-23415000D01*
X196810000Y-18700750D01*
X196651250Y-18542000D01*
X193802000Y-18542000D01*
X193548000Y-18542000D01*
X190698750Y-18542000D01*
X190540000Y-18700750D01*
X190536928Y-23415000D01*
X189828072Y-23415000D01*
X189828072Y-18375000D01*
X202641928Y-18375000D01*
X202654188Y-18499482D01*
X202690498Y-18619180D01*
X202749463Y-18729494D01*
X202828815Y-18826185D01*
X202925506Y-18905537D01*
X203035820Y-18964502D01*
X203155518Y-19000812D01*
X203280000Y-19013072D01*
X207994250Y-19010000D01*
X208153000Y-18851250D01*
X208153000Y-16002000D01*
X208407000Y-16002000D01*
X208407000Y-18851250D01*
X208565750Y-19010000D01*
X213280000Y-19013072D01*
X213404482Y-19000812D01*
X213524180Y-18964502D01*
X213634494Y-18905537D01*
X213731185Y-18826185D01*
X213810537Y-18729494D01*
X213869502Y-18619180D01*
X213905812Y-18499482D01*
X213918072Y-18375000D01*
X213915000Y-16160750D01*
X213756250Y-16002000D01*
X208407000Y-16002000D01*
X208153000Y-16002000D01*
X202803750Y-16002000D01*
X202645000Y-16160750D01*
X202641928Y-18375000D01*
X189828072Y-18375000D01*
X189828072Y-14335484D01*
X190537066Y-13626491D01*
X190540000Y-18129250D01*
X190698750Y-18288000D01*
X193548000Y-18288000D01*
X193548000Y-12938750D01*
X193802000Y-12938750D01*
X193802000Y-18288000D01*
X196651250Y-18288000D01*
X196810000Y-18129250D01*
X196813072Y-13415000D01*
X196809133Y-13375000D01*
X202641928Y-13375000D01*
X202645000Y-15589250D01*
X202803750Y-15748000D01*
X208153000Y-15748000D01*
X208153000Y-12898750D01*
X208407000Y-12898750D01*
X208407000Y-15748000D01*
X213756250Y-15748000D01*
X213915000Y-15589250D01*
X213918072Y-13375000D01*
X213905812Y-13250518D01*
X213869502Y-13130820D01*
X213810537Y-13020506D01*
X213731185Y-12923815D01*
X213634494Y-12844463D01*
X213524180Y-12785498D01*
X213404482Y-12749188D01*
X213280000Y-12736928D01*
X208565750Y-12740000D01*
X208407000Y-12898750D01*
X208153000Y-12898750D01*
X207994250Y-12740000D01*
X203280000Y-12736928D01*
X203155518Y-12749188D01*
X203035820Y-12785498D01*
X202925506Y-12844463D01*
X202828815Y-12923815D01*
X202749463Y-13020506D01*
X202690498Y-13130820D01*
X202654188Y-13250518D01*
X202641928Y-13375000D01*
X196809133Y-13375000D01*
X196800812Y-13290518D01*
X196764502Y-13170820D01*
X196705537Y-13060506D01*
X196626185Y-12963815D01*
X196529494Y-12884463D01*
X196419180Y-12825498D01*
X196299482Y-12789188D01*
X196175000Y-12776928D01*
X193960750Y-12780000D01*
X193802000Y-12938750D01*
X193548000Y-12938750D01*
X193389250Y-12780000D01*
X191386336Y-12777221D01*
X192138558Y-12025000D01*
X203248808Y-12025000D01*
X203280000Y-12028072D01*
X213280000Y-12028072D01*
X213404482Y-12015812D01*
X213524180Y-11979502D01*
X213634494Y-11920537D01*
X213731185Y-11841185D01*
X213810537Y-11744494D01*
X213869502Y-11634180D01*
X213905812Y-11514482D01*
X213918072Y-11390000D01*
X213918072Y-6390000D01*
X213905812Y-6265518D01*
X213869502Y-6145820D01*
X213810537Y-6035506D01*
X213731185Y-5938815D01*
X213634494Y-5859463D01*
X213524180Y-5800498D01*
X213404482Y-5764188D01*
X213280000Y-5751928D01*
X203280000Y-5751928D01*
X203248808Y-5755000D01*
X190993992Y-5755000D01*
X190839997Y-5739833D01*
X190686002Y-5755000D01*
X190685996Y-5755000D01*
X190287468Y-5794252D01*
X190225430Y-5800362D01*
X190046168Y-5854741D01*
X189634481Y-5979624D01*
X189089858Y-6270731D01*
X188612493Y-6662495D01*
X188514324Y-6782114D01*
X184582124Y-10714316D01*
X184462495Y-10812493D01*
X184070731Y-11289859D01*
X183779624Y-11834482D01*
X183654741Y-12246169D01*
X183600363Y-12425430D01*
X183600362Y-12425432D01*
X183555000Y-12885997D01*
X183555000Y-12886003D01*
X183539833Y-13039998D01*
X182840000Y-13039998D01*
X182840000Y-5040000D01*
X203248808Y-5040000D01*
X203280000Y-5043072D01*
X213280000Y-5043072D01*
X213404482Y-5030812D01*
X213524180Y-4994502D01*
X213634494Y-4935537D01*
X213731185Y-4856185D01*
X213810537Y-4759494D01*
X213869502Y-4649180D01*
X213905812Y-4529482D01*
X213918072Y-4405000D01*
X213918072Y595000D01*
X213905812Y719482D01*
X213869502Y839180D01*
X213810537Y949494D01*
X213731185Y1046185D01*
X213634494Y1125537D01*
X213524180Y1184502D01*
X213404482Y1220812D01*
X213280000Y1233072D01*
X203280000Y1233072D01*
X203248808Y1230000D01*
X179859002Y1230000D01*
X179705000Y1245168D01*
X179550998Y1230000D01*
X179195000Y1230000D01*
X179195000Y1955386D01*
X179253387Y1986595D01*
X179387962Y2097038D01*
X179498405Y2231613D01*
X179580472Y2385149D01*
X179631008Y2551745D01*
X179648072Y2724999D01*
X179648072Y3625001D01*
X179631008Y3798255D01*
X179580472Y3964851D01*
X179498405Y4118387D01*
X179387962Y4252962D01*
X179253387Y4363405D01*
X179099851Y4445472D01*
X178933255Y4496008D01*
X178760001Y4513072D01*
X178109999Y4513072D01*
X177936745Y4496008D01*
X177770149Y4445472D01*
X177616613Y4363405D01*
X177482038Y4252962D01*
X177410000Y4165184D01*
X177337962Y4252962D01*
X177203387Y4363405D01*
X177049851Y4445472D01*
X176883255Y4496008D01*
X176710001Y4513072D01*
X176059999Y4513072D01*
X175886745Y4496008D01*
X175720149Y4445472D01*
X175566613Y4363405D01*
X175432038Y4252962D01*
X175321595Y4118387D01*
X175239528Y3964851D01*
X175230473Y3935000D01*
X173874527Y3935000D01*
X173865472Y3964851D01*
X173783405Y4118387D01*
X173672962Y4252962D01*
X173538387Y4363405D01*
X173384851Y4445472D01*
X173218255Y4496008D01*
X173045001Y4513072D01*
X172394999Y4513072D01*
X172221745Y4496008D01*
X172055149Y4445472D01*
X171901613Y4363405D01*
X171767038Y4252962D01*
X171761658Y4246406D01*
X171696185Y4326185D01*
X171599494Y4405537D01*
X171489180Y4464502D01*
X171369482Y4500812D01*
X171245000Y4513072D01*
X170955750Y4510000D01*
X170797000Y4351250D01*
X170797000Y3302000D01*
X170817000Y3302000D01*
X170817000Y3048000D01*
X170797000Y3048000D01*
X170797000Y1998750D01*
X170955750Y1840000D01*
X171245000Y1836928D01*
X171369482Y1849188D01*
X171489180Y1885498D01*
X171599494Y1944463D01*
X171696185Y2023815D01*
X171761658Y2103594D01*
X171767038Y2097038D01*
X171901613Y1986595D01*
X172055149Y1904528D01*
X172221745Y1853992D01*
X172394999Y1836928D01*
X173045001Y1836928D01*
X173218255Y1853992D01*
X173384851Y1904528D01*
X173538387Y1986595D01*
X173672962Y2097038D01*
X173783405Y2231613D01*
X173865472Y2385149D01*
X173874527Y2415000D01*
X175230473Y2415000D01*
X175239528Y2385149D01*
X175321595Y2231613D01*
X175432038Y2097038D01*
X175566613Y1986595D01*
X175720149Y1904528D01*
X175886745Y1853992D01*
X176059999Y1836928D01*
X176710001Y1836928D01*
X176883255Y1853992D01*
X177049851Y1904528D01*
X177203387Y1986595D01*
X177337962Y2097038D01*
X177410000Y2184816D01*
X177482038Y2097038D01*
X177616613Y1986595D01*
X177675000Y1955386D01*
X177675001Y1230000D01*
X170969002Y1230000D01*
X170815000Y1245168D01*
X170660998Y1230000D01*
X146001192Y1230000D01*
X145970000Y1233072D01*
X135970000Y1233072D01*
X135845518Y1220812D01*
X135725820Y1184502D01*
X135615506Y1125537D01*
X135518815Y1046185D01*
X135439463Y949494D01*
X135380498Y839180D01*
X135344188Y719482D01*
X135331928Y595000D01*
X134010000Y595000D01*
X134010000Y5085918D01*
X134107377Y4596372D01*
X134396467Y3898446D01*
X134816161Y3270330D01*
X135350330Y2736161D01*
X135978446Y2316467D01*
X136676372Y2027377D01*
X137417285Y1880000D01*
X138172715Y1880000D01*
X138913628Y2027377D01*
X139611554Y2316467D01*
X139848815Y2475000D01*
X169456928Y2475000D01*
X169469188Y2350518D01*
X169505498Y2230820D01*
X169564463Y2120506D01*
X169643815Y2023815D01*
X169740506Y1944463D01*
X169850820Y1885498D01*
X169970518Y1849188D01*
X170095000Y1836928D01*
X170384250Y1840000D01*
X170543000Y1998750D01*
X170543000Y3048000D01*
X169618750Y3048000D01*
X169460000Y2889250D01*
X169456928Y2475000D01*
X139848815Y2475000D01*
X140239670Y2736161D01*
X140773839Y3270330D01*
X141177866Y3875000D01*
X169456928Y3875000D01*
X169460000Y3460750D01*
X169618750Y3302000D01*
X170543000Y3302000D01*
X170543000Y4351250D01*
X170384250Y4510000D01*
X170095000Y4513072D01*
X169970518Y4500812D01*
X169850820Y4464502D01*
X169740506Y4405537D01*
X169643815Y4326185D01*
X169564463Y4229494D01*
X169505498Y4119180D01*
X169469188Y3999482D01*
X169456928Y3875000D01*
X141177866Y3875000D01*
X141193533Y3898446D01*
X141482623Y4596372D01*
X141630000Y5337285D01*
X141630000Y6092715D01*
X141482623Y6833628D01*
X141193533Y7531554D01*
X140773839Y8159670D01*
X140239670Y8693839D01*
X139611554Y9113533D01*
X138913628Y9402623D01*
X138172715Y9550000D01*
X137417285Y9550000D01*
X136676372Y9402623D01*
X135978446Y9113533D01*
X135350330Y8693839D01*
X134816161Y8159670D01*
X134396467Y7531554D01*
X134107377Y6833628D01*
X134010000Y6344082D01*
X134010000Y10135000D01*
X215240000Y10135000D01*
X215240000Y6344082D01*
M02*
